<svg width="410" height="298" viewBox="0 0 410 298" fill="none" xmlns="http://www.w3.org/2000/svg">
<path d="M336.982 298C373.865 298 403.764 294.183 403.764 289.474C403.764 284.765 373.865 280.948 336.982 280.948C300.099 280.948 270.2 284.765 270.2 289.474C270.2 294.183 300.099 298 336.982 298Z" fill="#FFB9B9"/>
<path d="M340.666 259.788C340.666 259.788 344.254 271.948 346.646 275.086C349.039 278.224 351.032 283.324 349.836 284.108C348.64 284.893 346.248 294.307 349.437 294.699C352.627 295.092 359.804 284.501 360.203 280.97C360.602 277.44 362.196 264.888 362.196 264.888C362.196 264.888 364.988 253.904 360.602 253.12C356.216 252.335 349.437 251.943 349.437 251.943L340.666 259.788Z" fill="#2F2E41"/>
<path d="M323.919 272.733C323.919 272.733 318.736 286.07 317.54 286.854C316.344 287.639 311.958 294.699 320.73 294.699C329.501 294.699 334.286 292.346 334.286 292.346L337.077 289.208C337.077 289.208 337.077 280.97 336.28 279.793C335.482 278.617 336.28 272.733 336.28 272.733H323.919Z" fill="#2F2E41"/>
<path d="M288.433 150.741C288.433 150.741 282.054 193.104 287.636 206.833C293.218 220.562 298.8 224.485 298.8 224.485L341.064 263.319C341.064 263.319 354.222 256.65 353.026 252.335C353.026 252.335 350.235 250.766 349.836 249.59C349.437 248.413 344.254 248.021 344.254 248.021C344.254 248.021 341.862 245.275 341.862 243.706C341.862 242.137 321.128 214.286 314.35 212.325C314.35 212.325 310.762 208.01 311.16 207.226C311.559 206.441 309.964 203.695 309.964 203.695L313.951 188.397L339.071 184.475C339.071 184.475 349.437 148.387 340.666 145.641C331.894 142.895 288.433 150.741 288.433 150.741Z" fill="#2F2E41"/>
<path d="M338.273 178.199L339.071 184.475C339.071 184.475 339.071 200.95 338.273 202.519C337.476 204.088 337.077 206.441 338.273 208.01C339.469 209.579 341.463 213.502 340.666 215.071C339.868 216.64 342.26 260.965 339.071 264.103C335.881 267.241 337.077 271.164 337.476 271.556C337.875 271.948 337.077 273.517 337.077 273.517C337.077 273.517 320.73 276.263 321.926 273.517C323.122 270.772 323.122 269.203 323.919 268.418C324.717 267.633 323.919 266.457 323.919 266.457C323.919 266.457 325.116 253.904 323.919 253.12C322.723 252.335 319.135 214.679 319.135 214.286C319.135 213.894 317.939 213.11 317.939 211.541C317.939 209.972 317.939 204.872 315.945 204.088C313.951 203.303 314.35 184.082 314.35 184.082L338.273 178.199Z" fill="#2F2E41"/>
<path d="M309.964 38.1624C309.964 38.1624 311.559 49.9302 316.344 52.2837C321.128 54.6372 324.318 55.814 324.318 55.814L320.331 69.5431L318.736 81.3108H300.395L290.427 73.4656L293.617 60.5211L295.212 58.1676C295.212 58.1676 297.205 49.5379 295.61 46.7921C294.015 44.0463 309.964 38.1624 309.964 38.1624Z" fill="#FFB9B9"/>
<path d="M301.99 66.7973L304.781 71.8966C304.781 71.8966 306.774 64.836 309.565 63.6592C312.357 62.4824 319.135 60.5211 319.135 58.9521C319.135 57.3831 318.736 53.4605 320.331 53.4605C321.926 53.4605 337.476 58.1676 339.868 59.7366C342.261 61.3056 342.659 62.8747 342.659 62.8747L338.273 107.984C338.273 107.984 344.653 129.166 342.659 137.404C340.666 145.641 339.071 146.818 334.286 147.995C329.501 149.171 332.293 145.249 318.337 149.172C304.382 153.094 295.61 151.917 292.421 151.917C289.231 151.917 287.237 153.486 286.44 153.879C285.642 154.271 286.041 151.917 288.832 148.387C291.623 144.857 290.427 138.973 290.427 138.973C290.427 138.973 287.237 128.774 289.231 124.851C291.224 120.929 294.015 115.83 291.623 114.261C289.231 112.691 286.041 100.924 286.041 100.924L277.269 70.3276L295.212 58.1676C295.212 58.1676 294.414 63.6592 297.205 64.836C299.996 66.0127 301.99 66.7973 301.99 66.7973Z" fill="#07A699"/>
<path d="M279.661 69.9353H277.269C277.269 69.9353 273.282 76.6037 273.282 81.3108C273.282 86.0179 275.276 112.691 275.276 112.691L286.838 124.459L289.629 115.437L290.427 95.4321L279.661 69.9353Z" fill="#07A699"/>
<path d="M286.041 111.515C286.041 111.515 272.883 107.984 273.282 113.476C273.681 118.968 275.674 125.636 282.054 127.205C288.433 128.774 290.427 120.144 290.427 120.144C290.427 120.144 291.224 112.299 286.041 111.515Z" fill="#07A699"/>
<path d="M335.482 129.559C335.482 129.559 334.685 147.602 329.9 149.564L341.463 152.31C341.463 152.31 347.045 133.481 346.248 132.697C345.45 131.912 335.482 129.559 335.482 129.559Z" fill="#FFB9B9"/>
<path d="M267.094 92.83L273.941 89.8872C274.197 89.7773 274.486 89.7718 274.746 89.872C275.006 89.9722 275.215 90.1698 275.327 90.4214L282.939 107.565C283.075 107.872 283.082 108.22 282.958 108.533C282.833 108.845 282.588 109.096 282.276 109.23L275.855 111.989C275.543 112.123 275.189 112.13 274.872 112.008C274.554 111.885 274.299 111.644 274.163 111.337L266.551 94.1931C266.495 94.0685 266.465 93.9344 266.463 93.7985C266.46 93.6626 266.485 93.5275 266.535 93.4009C266.586 93.2743 266.661 93.1588 266.757 93.0608C266.852 92.9629 266.967 92.8844 267.094 92.83Z" fill="#2F2E41"/>
<path opacity="0.1" d="M267.094 92.83L273.941 89.8872C274.197 89.7773 274.486 89.7718 274.746 89.872C275.006 89.9722 275.215 90.1698 275.327 90.4214L282.939 107.565C283.075 107.872 283.082 108.22 282.958 108.533C282.833 108.845 282.588 109.096 282.276 109.23L275.855 111.989C275.543 112.123 275.189 112.13 274.872 112.008C274.554 111.885 274.299 111.644 274.163 111.337L266.551 94.1931C266.495 94.0685 266.465 93.9344 266.463 93.7985C266.46 93.6626 266.485 93.5275 266.535 93.4009C266.586 93.2743 266.661 93.1588 266.757 93.0608C266.852 92.9629 266.967 92.8844 267.094 92.83Z" fill="black"/>
<path d="M267.482 93.7051L273.452 91.1394C273.708 91.0295 273.997 91.024 274.257 91.1242C274.517 91.2244 274.726 91.422 274.837 91.6736L282.061 107.942C282.198 108.249 282.205 108.598 282.08 108.91C281.956 109.222 281.71 109.473 281.398 109.607L275.855 111.989C275.543 112.123 275.189 112.13 274.872 112.008C274.554 111.885 274.299 111.644 274.163 111.337L266.939 95.0681C266.827 94.8165 266.822 94.5316 266.924 94.2759C267.025 94.0203 267.226 93.815 267.482 93.7051Z" fill="#2F2E41"/>
<path d="M272.972 100.645C273.942 100.228 274.38 99.1068 273.95 98.1402C273.521 97.1737 272.387 96.7279 271.418 97.1445C270.449 97.5611 270.011 98.6823 270.44 99.6489C270.869 100.615 272.003 101.061 272.972 100.645Z" fill="#F2F2F2"/>
<path opacity="0.1" d="M338.473 68.1702L341.064 64.4437C341.064 64.4437 350.634 78.9573 349.836 88.7637C349.039 98.5702 348.241 98.9624 348.241 100.531C348.241 102.1 346.248 102.1 348.241 104.062C350.235 106.023 353.026 108.769 351.431 110.338C349.836 111.907 348.64 111.907 349.039 113.868C349.294 115.293 349.427 116.736 349.437 118.183C349.437 118.183 346.048 124.655 344.852 124.655C343.656 124.655 332.292 135.05 332.292 133.873C332.292 132.697 333.489 124.459 333.489 123.282C333.489 122.106 333.887 118.183 334.685 117.006C335.482 115.83 335.482 116.222 334.685 115.045C333.887 113.868 333.887 115.045 333.887 113.868C333.887 112.691 334.286 111.122 333.09 110.73C331.894 110.338 330.698 110.73 331.495 108.769C332.293 106.808 331.495 105.239 331.096 105.239C330.698 105.239 328.704 104.846 329.9 103.67C331.096 102.493 327.508 79.7418 327.508 79.7418C327.508 79.7418 328.106 74.054 338.473 68.1702Z" fill="black"/>
<path d="M336.28 59.7366L343.058 62.8747C343.058 62.8747 352.627 77.3882 351.83 87.1947C351.032 97.0011 350.235 97.3934 350.235 98.9624C350.235 100.531 348.241 100.531 350.235 102.493C352.228 104.454 355.019 107.2 353.425 108.769C351.83 110.338 350.634 110.338 351.032 112.299C351.287 113.724 351.421 115.167 351.431 116.614C351.431 116.614 347.843 135.442 346.646 135.442C345.45 135.442 334.286 133.481 334.286 132.304C334.286 131.128 335.482 122.89 335.482 121.713C335.482 120.537 335.881 116.614 336.678 115.437C337.476 114.261 337.476 114.653 336.678 113.476C335.881 112.299 335.881 113.476 335.881 112.299C335.881 111.122 336.28 109.553 335.084 109.161C333.887 108.769 332.691 109.161 333.489 107.2C334.286 105.239 333.489 103.67 333.09 103.67C332.691 103.67 330.698 103.277 331.894 102.101C333.09 100.924 329.502 78.1727 329.502 78.1727C329.502 78.1727 325.913 65.6205 336.28 59.7366Z" fill="#07A699"/>
<path d="M275.778 114.316C275.407 114.413 275.013 114.381 274.663 114.225C274.313 114.07 274.028 113.801 273.856 113.463C272.024 109.859 267.059 99.2876 271.687 98.9624C275.957 98.6624 279.759 106.853 281.312 110.721C281.411 110.967 281.455 111.231 281.443 111.495C281.431 111.758 281.362 112.017 281.24 112.253C281.119 112.488 280.948 112.696 280.739 112.862C280.53 113.028 280.288 113.149 280.028 113.216L275.778 114.316Z" fill="#FFB9B9"/>
<path d="M298.8 49.1456C306.948 49.1456 313.553 42.6477 313.553 34.6321C313.553 26.6165 306.948 20.1185 298.8 20.1185C290.652 20.1185 284.047 26.6165 284.047 34.6321C284.047 42.6477 290.652 49.1456 298.8 49.1456Z" fill="#FFB9B9"/>
<path d="M293.379 26.2734C291.538 26.8983 289.638 27.3395 287.708 27.5905C286.255 27.8136 284.554 27.9278 283.533 26.8867C282.531 25.8651 282.693 24.161 283.377 22.9106C284.06 21.6602 285.155 20.6799 285.977 19.5126C287.269 17.6767 288.031 15.2428 290.097 14.318C290.953 13.9956 291.862 13.8286 292.778 13.8253C298.139 13.489 303.719 13.1861 308.683 15.2042C310.549 15.9034 312.201 17.0601 313.484 18.5646C314.325 19.6724 314.973 20.9093 315.403 22.2252C316.73 26.0971 317.025 30.2392 316.26 34.2554C315.495 38.2715 313.696 42.0276 311.034 45.1644C309.225 43.5608 310.012 39.8552 307.723 39.038C306.972 38.7699 306.123 38.9565 305.353 38.7443C302.936 38.0773 303.057 34.4014 301.044 32.9244C300.605 32.6917 300.215 32.3769 299.898 31.9978C299.721 31.6341 299.644 31.2312 299.675 30.8291C299.66 29.4521 300.318 25.9541 298.983 25.0102C297.623 24.0494 294.685 25.8094 293.379 26.2734Z" fill="#2F2E41"/>
<path d="M285.348 263.98C285.348 263.98 284.264 241.032 262.031 243.7L285.348 263.98Z" fill="#FFB9B9"/>
<path d="M379.091 210.241C379.091 210.241 380.176 187.293 402.408 189.96L379.091 210.241Z" fill="#FFB9B9"/>
<path d="M378.632 283.45C378.604 283.208 375.963 259.144 386.656 246.409C390.602 241.709 395.89 239.076 402.373 238.586L402.444 239.493C396.222 239.964 391.151 242.485 387.37 246.986C376.928 259.422 379.523 283.109 379.551 283.347L378.632 283.45Z" fill="#FFB9B9"/>
<path d="M51 102H229.793V159.743H223.02V174.845L207.67 159.743H129.335H51V102Z" fill="#FFB9B9"/>
<path d="M224.826 107.623H55.9663V153.818H224.826V107.623Z" fill="white"/>
<path d="M150.847 121.11H69.5452V123.537H150.847V121.11Z" fill="#07A699"/>
<path d="M211.248 129.507H69.5452V131.934H211.248V129.507Z" fill="#2F2E41"/>
<path d="M211.109 137.904H69.5452V140.331H211.109V137.904Z" fill="#2F2E41"/>
<path d="M216.793 188H38V245.744H44.7725V260.846L60.1232 245.744H216.793V188Z" fill="#FFB9B9"/>
<path d="M211.827 193.623H42.9665V239.818H211.827V193.623Z" fill="white"/>
<path d="M139.202 207.554H57.8999V209.982H139.202V207.554Z" fill="#07A699"/>
<path d="M199.602 215.951H57.8999V218.379H199.602V215.951Z" fill="#2F2E41"/>
<path d="M199.463 224.348H57.8999V226.775H199.463V224.348Z" fill="#2F2E41"/>
<path d="M205.075 13.4048H26.2821V71.1482H33.0546V86.2506L48.4053 71.1482H205.075V13.4048Z" fill="#FFB9B9"/>
<path d="M200.109 19.028H31.2485V65.2228H200.109V19.028Z" fill="white"/>
<path d="M127.484 32.9591H46.182V35.3864H127.484V32.9591Z" fill="#07A699"/>
<path d="M187.884 41.3559H46.182V43.7833H187.884V41.3559Z" fill="#2F2E41"/>
<path d="M187.745 49.7528H46.182V52.1801H187.745V49.7528Z" fill="#2F2E41"/>
<path d="M285.45 237.274H284.525V287.315H285.45V237.274Z" fill="#FFB9B9"/>
<path d="M378.857 186.778H377.932V287.315H378.857V186.778Z" fill="#FFB9B9"/>
<path d="M285.348 238.899C289.541 238.899 292.94 235.555 292.94 231.43C292.94 227.305 289.541 223.962 285.348 223.962C281.155 223.962 277.757 227.305 277.757 231.43C277.757 235.555 281.155 238.899 285.348 238.899Z" fill="#07A699"/>
<path d="M379.092 187.293C383.284 187.293 386.683 183.949 386.683 179.825C386.683 175.7 383.284 172.356 379.092 172.356C374.899 172.356 371.5 175.7 371.5 179.825C371.5 183.949 374.899 187.293 379.092 187.293Z" fill="#07A699"/>
<path d="M402.408 246.508C406.601 246.508 410 243.164 410 239.039C410 234.915 406.601 231.571 402.408 231.571C398.216 231.571 394.817 234.915 394.817 239.039C394.817 243.164 398.216 246.508 402.408 246.508Z" fill="#FFB9B9"/>
</svg>
